<?xml version="1.0" standalone="no"?><!DOCTYPE svg PUBLIC "-//W3C//DTD SVG 1.1//EN" "http://www.w3.org/Graphics/SVG/1.1/DTD/svg11.dtd"><svg t="1589251302200" class="icon" viewBox="0 0 1024 1024" version="1.1" xmlns="http://www.w3.org/2000/svg" p-id="4530" xmlns:xlink="http://www.w3.org/1999/xlink" width="200" height="200"><defs><style type="text/css"></style></defs><path d="M946.501952 784.123724L820.381509 658.002258c-11.263531-11.262508-32.656771-12.678764-38.752605 2.03638-1.63115 3.932566-2.036379 14.993482-2.03638 14.993482v85.22708H352.663038c-56.814983 0-103.036701-46.221718-103.036701-103.034654 0-56.81396 46.221718-103.037724 103.036701-103.037725h46.746674v0.001024h340.493881c105.621573 0 191.551664-85.929068 191.551664-191.551664s-85.929068-191.551664-191.551664-191.551664H360.927259C341.956186 109.202121 284.288788 64.076364 216.275765 64.076364c-83.407642 0-151.262052 67.856457-151.262052 151.262053 0 83.408665 67.856457 151.263076 151.262052 151.263075 68.013023 0 125.680421-45.12371 144.651494-107.005082H739.90564c56.814983 0 103.036701 46.221718 103.036701 103.036701s-46.221718 103.036701-103.036701 103.036701H352.663038c-105.622596 0-191.551664 85.930091-191.551664 191.552687 0 105.620549 85.929068 191.550641 191.551664 191.550641h426.93051v80.866772s-0.01228 12.377912 2.036379 17.318434c6.094812 14.715143 27.488051 15.33322 38.752606 4.069689L946.500928 824.908616c11.263531-11.261485 11.263531-29.52443 0.001024-40.784892zM216.275765 278.087553c-34.597983 0-62.747089-28.149107-62.747089-62.74709 0-34.596959 28.149107-62.747089 62.747089-62.747089 34.599006 0 62.747089 28.149107 62.74709 62.747089-0.001023 34.599006-28.148084 62.747089-62.74709 62.74709z" p-id="4531" fill="#515151"></path></svg>