<?xml version="1.0" standalone="no"?><!DOCTYPE svg PUBLIC "-//W3C//DTD SVG 1.1//EN" "http://www.w3.org/Graphics/SVG/1.1/DTD/svg11.dtd"><svg t="1589251253069" class="icon" viewBox="0 0 1024 1024" version="1.1" xmlns="http://www.w3.org/2000/svg" p-id="3720" data-spm-anchor-id="a313x.7781069.0.i2" xmlns:xlink="http://www.w3.org/1999/xlink" width="200" height="200"><defs><style type="text/css"></style></defs><path d="M512 877.714286m-109.714286 0a109.714286 109.714286 0 1 0 219.428572 0 109.714286 109.714286 0 1 0-219.428572 0Z" p-id="3721" fill="#515151"></path><path d="M790.918095 480.694857l-256.097524 380.586667a26.965333 26.965333 0 0 1-44.958476 0L233.764571 481.718857a305.883429 305.883429 0 0 1-47.494095-163.206095C186.270476 145.408 332.361143 4.632381 512 4.632381c179.638857 0 325.729524 140.726857 325.729524 313.880381a306.029714 306.029714 0 0 1-46.811429 162.182095zM512 58.806857c-149.699048 0-271.36 116.394667-271.36 259.559619 0 47.104 13.360762 93.42781 38.521905 133.510095l233.033143 345.429334 233.081904-346.258286c24.722286-39.448381 38.083048-85.577143 38.083048-132.681143 0-143.018667-121.709714-259.559619-271.36-259.559619zM512 466.651429c-85.040762 0-154.282667-67.047619-154.282667-149.357715 0-82.261333 69.241905-149.308952 154.282667-149.308952 85.040762 0 154.282667 67.047619 154.282667 149.308952 0 82.310095-69.241905 149.357714-154.282667 149.357715z m0-244.297143c-55.198476 0-100.10819 42.666667-100.10819 94.939428 0 52.46781 44.909714 94.98819 100.10819 94.988191s99.961905-42.666667 99.961905-94.988191c0-52.419048-44.763429-94.939429-99.961905-94.939428z" p-id="3722" fill="#515151"></path></svg>