<?xml version="1.0" standalone="no"?><!DOCTYPE svg PUBLIC "-//W3C//DTD SVG 1.1//EN" "http://www.w3.org/Graphics/SVG/1.1/DTD/svg11.dtd"><svg t="1589252579566" class="icon" viewBox="0 0 1024 1024" version="1.1" xmlns="http://www.w3.org/2000/svg" p-id="9035" xmlns:xlink="http://www.w3.org/1999/xlink" width="200" height="200"><defs><style type="text/css"></style></defs><path d="M410.112 513.664H97.664c-17.664 0-32 14.336-32 32s14.336 32 32 32h242.752L72.96 845.12a30.593 30.593 0 0 0 0 43.392c11.968 11.968 31.36 11.968 43.328 0l269.376-269.376v246.592c0 17.664 14.336 32 32 32s32-14.336 32-32v-320c0-24.128-13.824-32.064-39.552-32.064z m143.104-64h312.512c17.664 0 32-14.336 32-32s-14.336-32-32-32H622.912l267.456-267.456a30.593 30.593 0 0 0 0-43.392c-11.968-11.968-31.36-11.968-43.328 0l-269.376 269.44V97.664c0-17.664-14.336-32-32-32s-32 14.336-32 32v320c0 20.48 16 32 39.552 32z" p-id="9036" fill="#515151"></path></svg>