<?xml version="1.0" standalone="no"?><!DOCTYPE svg PUBLIC "-//W3C//DTD SVG 1.1//EN" "http://www.w3.org/Graphics/SVG/1.1/DTD/svg11.dtd"><svg t="1589251576254" class="icon" viewBox="0 0 1024 1024" version="1.1" xmlns="http://www.w3.org/2000/svg" p-id="8236" xmlns:xlink="http://www.w3.org/1999/xlink" width="200" height="200"><defs><style type="text/css"></style></defs><path d="M507.7 444.4c0-2.3 0-2.3 0 0 0-2.3 0 0 0 0z m153.1 164.4h-4.6s2.3 2.3 4.6 0zM514.6 120C299.9 120 124 293.6 124 510.6c0 217 173.6 390.6 390.6 390.6 214.7 0 390.6-173.6 390.6-390.6 0-217-173.6-390.6-390.6-390.6z m249 153c-13.7 0-22.8 0-34.3 6.9-4.6 2.3-6.8 6.9-13.7 9.1-4.6 2.3-11.4 0-16 2.3-18.3 6.9-16 43.4-38.8 38.8-11.4-2.3-18.3-16-25.1-25.1-4.6-6.9-13.7-13.7-6.8-22.8h-9.1c4.6-9.1 16-6.9 18.3-11.4 4.6-11.4-13.7-11.4-20.6-13.7 6.9-6.8 9.1 2.3 16 0s-2.3-9.1-6.9-11.4c-2.3 0-22.8 6.9-11.4-4.6-16-9.1-32-20.6-48-29.7-2.3 11.4 20.6 18.3 29.7 20.6-2.3 4.6-9.1 11.4-13.7 9.1-4.6-2.3-2.3-11.4-11.4-9.1-4.6 13.7 11.4 9.1 13.7 18.3 2.3 9.1-6.9 4.6-9.1 4.6 0 0-6.9-6.8-6.9-2.3 0 4.6 9.1 4.6 11.4 9.1-11.4 0-18.3-4.6-27.4-9.1-11.4-6.9-16-6.9-29.7-6.9 4.6-2.3 9.1-2.3 13.7-4.6 2.3-2.3 9.1-9.1 9.1-11.4 2.3-6.9 0-6.9-6.9-11.4-2.3-2.3-9.1-11.4-18.3-11.4-25.1-4.6-9.1 22.8-27.4 27.4-4.6 0-13.7-2.3-16 2.3-2.3 2.3-2.3 9.1-4.6 11.4-4.6 4.6-11.4 4.6-16 9.1-4.6 2.3-16 11.4-18.3 16-11.4 20.6 22.8 27.4 36.5 32 6.9 2.3 22.8 6.8 25.1 11.4 4.6 6.9-4.6 11.4 4.6 16 2.3 2.3 9.1 2.3 11.4-2.3 4.6-4.6-2.3-4.6-2.3-11.4-2.3-9.1 2.3-6.9 6.9-9.1 9.1-6.9 6.9-9.1 4.6-20.6-2.3-4.6-9.1-20.6-2.3-25.1 6.9-4.6 22.8 2.3 29.7 4.6 6.8 0 11.4 9.1 13.7 13.7 2.3 2.3 6.9 6.9 11.4 6.9 6.9 0 4.6-6.9 6.9-9.1 11.4-6.9 13.7 2.3 18.3 11.4 4.6 9.1 6.9 11.4 13.7 18.3 2.3 2.3 18.3 11.4 16 18.3 0 4.6-16 9.1-20.6 11.4-16 4.6-45.7-9.1-48 16 6.9-2.3 22.8-16 27.4-9.1 2.3 2.3-2.3 6.9 0 11.4 2.3 9.1 9.1 6.9 18.3 4.6h-2.3c9.1-4.6 9.1-4.6 13.7-11.4 2.3-2.3 4.6-9.1 6.9-11.4 6.8-6.8 9.1-2.3 13.7 2.3 2.3 2.3 11.4 18.3 9.1 16-13.7-2.3-25.1-2.3-36.5 4.6-6.9 4.6-11.4 9.1-18.3 11.4-2.3 0-16 2.3-13.7 0 2.3-2.3 9.1-4.6 13.7-9.1-9.1-4.6-16 4.6-22.8 9.1-6.9 2.3-9.1 9.1-13.7 16-2.3 2.3-6.8 2.3-9.1 6.8-2.3 2.3-2.3 6.9-4.6 11.4-2.3 2.3-6.9 0-6.9 4.6-2.3 4.6 2.3 6.9 0 11.4-2.3 4.6-11.4 9.1-16 13.7l2.3-2.3c-4.6 4.6-9.1 6.9-11.4 11.4 2.3 6.8 6.8 22.8 4.6 25.1-11.4 9.1-18.3-9.1-22.8-13.7-11.4-16-32-4.6-48-4.6-18.3 2.3-36.6 25.1-25.1 45.7 4.6 9.1 16 13.7 25.1 11.4 9.1-2.3 11.4-16 20.6-16 16 0 0 16 0 22.8-2.3 4.6 2.3 6.9 6.8 6.9 4.6 0 11.4-2.3 13.7 0 2.3 2.3 2.3 9.1 4.6 6.9-6.8 4.6-4.6 18.3 2.3 22.8 6.8 4.6 16 0 22.8 2.3 13.7 4.6 6.9 0 20.6-9.1 9.1-4.6 9.1 0 16 0 4.6 0 6.8-4.6 13.7-4.6 4.6 2.3 6.9 4.6 13.7 6.9h6.8c11.4 2.3 20.6 9.1 29.7 16 6.8 4.6 13.7 4.6 22.8 6.9 6.9 2.3 18.3 11.4 18.3 20.6 0 2.3-6.9 9.1-6.9 11.4 2.3 2.3 13.7-2.3 16-2.3 0 2.3-9.1 6.9-9.1 4.6 0 2.3 4.6 4.6 6.9 4.6 4.6-13.7 11.4-4.6 18.3-2.3 6.8 2.3 16 2.3 22.8 4.6 6.9 2.3 20.6 6.9 25.1 11.4 4.6 6.8 2.3 16-2.3 22.8-4.6 9.1-13.7 11.4-18.3 20.6-2.3 6.9 0 16-2.3 22.8-2.3 11.4-4.6 6.9-11.4 13.7-6.9 6.9 0 4.6-9.1 9.1-9.1 4.6-16 2.3-22.8 11.4V723c-2.3 4.6-4.6 11.4-4.6 13.7-2.3 6.9-6.8 9.1-11.4 13.7-2.3 2.3-18.3 25.1-18.3 22.8-2.3-2.3-13.7 2.3-13.7 0 0 2.3 0 2.3 2.3 4.6-2.3 18.3-11.4 20.6-29.7 20.6 2.3 9.1-6.9 6.9-11.4 11.4-2.3 2.3-2.3 11.4-4.6 13.7 0 2.3-9.1 11.4-9.1 13.7 0 2.3 2.3 4.6 4.6 6.9-13.7 2.3-25.1 4.6-38.8 4.6 2.3-2.3 2.3-6.8-4.6-6.8 2.3-6.9 6.9-9.1 9.1-13.7v-6.9c2.3-9.1 2.3-4.6 0-11.4-4.6-16 2.3-20.6 6.9-36.5 4.6-16 4.6-34.3 6.8-52.5 2.3-6.9 4.6-25.1 0-32-2.3-9.1-16-16-22.8-20.6-9.1-9.1-13.7-16-20.6-27.4-2.3-4.6-6.9-9.1-9.1-16-4.6-11.4 0-4.6 0-11.4 0-6.9 0-13.7 2.3-20.6 2.3-6.9 9.1-13.7 13.7-20.6 2.3-6.9 0-16-6.9-18.3-4.6-2.3-9.1 2.3-11.4 0-4.6 0-11.4-4.6-16-9.1-6.9-4.6-9.1-11.4-16-16-4.6-4.6-9.1-2.3-16-2.3-6.9-2.3-9.1-9.1-13.7-11.4-6.9-4.6-11.4 2.3-18.3 0-6.9 0-16-9.1-22.8-11.4-13.7-4.6-20.6-11.4-25.1-25.1-4.6-11.4-11.4-16-18.3-25.1-6.9-9.1-9.1-16-20.6-20.6-2.3 0 2.3 9.1 2.3 11.4 4.6 6.8 11.4 13.7 16 22.8 6.8 11.4 4.6 11.4-2.3 2.3-9.1-11.4-18.3-22.8-25.1-34.3 4.6 4.6 4.6 0 0-4.6s-11.4-6.9-13.7-11.4c-16-13.7-18.3-34.3-18.3-54.8 0-6.9 2.3-11.4 2.3-18.3 0-4.6-4.6-9.1-9.1-13.7-2.3-2.3-4.6-6.9-4.6-6.9-4.6-6.9-6.8-11.4-11.4-16-2.3-2.3-11.4-9.1-20.6-16 36.5-45.7 84.5-82.2 139.3-105.1 0 2.3 2.3 4.6 2.3 9.1 6.9 6.9 11.4 6.9 18.3 9.1 0 9.1-13.7 11.4-20.6 9.1-9.1-2.3-20.6-4.6-27.4 4.6 4.6 2.3 18.3 13.7 16 2.3h27.4c4.6 0 16 4.6 18.3 2.3 2.3 0 2.3-6.9 4.6-9.1-2.3 0-4.6-2.3-6.9 0 6.9-6.9 11.4-2.3 20.6 2.3-9.1 4.6-2.3 18.3 4.6 6.9 6.9-9.1-2.3-13.7-9.1-18.3 9.1-11.4 13.7-11.4 22.8 0 2.3-6.9 6.9-4.6 13.7-4.6v-2.3c-2.3 0-6.9-2.3-9.1-2.3 6.8-11.4 2.3-13.7 11.4-16 6.9-2.3 27.4 0 32-6.9-13.7 2.3-32 4.6-45.7 9.1-6.8 2.3-11.4 11.4-18.3 6.8-6.8-6.8 4.6-16 9.1-18.3H446c22.8-4.6 48-6.9 73.1-6.9 16 0 32 2.3 48 2.3-4.6 2.3-2.3 4.6-4.6 6.9-6.8 4.6-20.6 9.1-29.7 13.7 11.4 0 38.8 11.4 43.4-4.6-4.6 0-6.9 0-11.4-2.3 6.9-4.6 13.7-9.1 22.8-11.4 66.3 16.3 130.3 52.9 176 103.1 2.3 0 0 0 0 0z m63.9 137.1c0-2.3 2.3-2.3 2.3-2.3 2.3-2.3 0-4.6 2.3-6.8 2.3-2.3 4.6-2.3 6.9-4.6l2.3-2.3c6.9 16 11.4 32 13.7 50.2l-6.9 2.3c-4.6 0-6.9-2.3-9.1-4.6l-9.1-9.1c-2.3-4.6 0-6.9 0-11.4-2.4-4.6-4.7-9.1-2.4-11.4z m4.6 178.2c-6.9-6.9-13.7-13.7-18.3-20.6-4.6-9.1-2.3-16-2.3-25.1 0-6.9-4.6-18.3 0-25.1l6.9-6.8c2.3-4.6 2.3-9.1 6.8-13.7 4.6-4.6 9.1-6.9 13.7-11.4 4.6-4.6 4.6-6.9 6.9-13.7 2.3-4.6 6.8-11.4 11.4-13.7 2.3 18.3 4.6 34.3 4.6 52.5 0 29.7-4.6 61.7-11.4 89.1-6.9-2.4-13.7-7-18.3-11.5z m0 0" p-id="8237" fill="#515151"></path></svg>